<?xml version="1.0" encoding="UTF-8"?><svg id="a" xmlns="http://www.w3.org/2000/svg" viewBox="0 0 75 75"><path d="M43.99,61.05v.05h0c0,1.56-1.04,2.59-2.6,2.59h-7.79c-1.56,0-2.6-1.04-2.6-2.6h0s0-.05,0-.05H0v1.31c.65,2.98,3.24,5.19,6.36,5.19h62.28c3.11,0,5.71-2.21,6.36-5.19v-1.31h-31.01Z"/><path d="M68.64,13.12H6.36c-.65,0-1.3.65-1.3,1.3v44.08h25.95c1.56,0,2.6,1.04,2.6,2.6h7.79c0-1.56,1.04-2.6,2.6-2.6h25.95V14.42c0-.65-.65-1.3-1.3-1.3ZM22.24,38.2l4.68,4.6-3.47,3.31-9.36-8.88s9.45-8.88,9.45-8.96c0,.08,3.47,3.31,3.47,3.31l-4.76,4.36c-.32.32-.48.73-.48,1.13s.16.81.48,1.13ZM32.17,50.83h-4.68l15.18-27.45h4.76l-15.26,27.45ZM47.99,42.72l4.68-4.44c.32-.32.48-.73.48-1.13s-.16-.81-.48-1.13l-4.68-4.6,3.47-3.31,9.45,8.96-9.45,8.96-3.47-3.31Z"/></svg>