<?xml version="1.0" encoding="UTF-8"?><svg id="a" xmlns="http://www.w3.org/2000/svg" viewBox="0 0 75 75"><path d="M72.2,6.47h-38.07c-.95,0-1.43.79-1.43,1.43v18.4l3.97-3.97c2.38-2.22,6.03-2.22,8.25,0l4.28,4.28c.63.63,1.27.48,1.74,0l6.82-8.57c1.27-1.59,3.17-2.38,5.08-2.22s3.65,1.27,4.6,2.86l6.34,11.26V7.74c0-.79-.79-1.27-1.59-1.27ZM46.82,19.16c-2.7,0-4.76-2.06-4.76-4.76s2.06-4.76,4.76-4.76,4.76,2.06,4.76,4.76-2.06,4.76-4.76,4.76Z"/><path d="M28.77,40.04V1.31c0-.72-.58-1.31-1.31-1.31H2.93c-.94,0-1.71.77-1.71,1.71v71.58c0,.94.77,1.71,1.71,1.71h61.58c.94,0,1.71-.77,1.71-1.71v-28.12h-32.32c-2.74,0-5.13-2.39-5.13-5.13h0ZM7.2,6.7h15.37c1.28,0,2.57,1.28,2.57,2.57s-1.28,2.57-2.57,2.57H7.2c-1.28,0-2.57-1.28-2.57-2.57s1.28-2.57,2.57-2.57ZM7.2,17.79h10.97c1.28,0,2.57,1.28,2.57,2.57s-1.28,2.57-2.57,2.57H7.2c-1.28,0-2.57-1.28-2.57-2.57s1.28-2.57,2.57-2.57ZM7.2,28.87h16.66c1.28,0,2.57,1.28,2.57,2.57s-1.28,2.57-2.57,2.57H7.2c-1.28,0-2.57-1.28-2.57-2.57s1.28-2.57,2.57-2.57ZM7.2,39.96h13.53c1.28,0,2.57,1.28,2.57,2.57s-1.28,2.57-2.57,2.57H7.2c-1.28,0-2.57-1.28-2.57-2.57s1.28-2.57,2.57-2.57ZM7.2,51.04h40.61c1.28,0,2.57,1.28,2.57,2.57s-1.28,2.57-2.57,2.57H7.2c-1.28,0-2.57-1.28-2.57-2.57s1.28-2.57,2.57-2.57ZM7.2,62.13h47.97c1.28,0,2.57,1.28,2.57,2.57s-1.28,2.57-2.57,2.57H7.2c-1.28,0-2.57-1.28-2.57-2.57s1.28-2.57,2.57-2.57Z"/><path d="M60.14,22.09l-6.82,8.57c-1.74,2.06-4.92,2.06-6.5.32l-4.28-4.12c-.95-.95-2.7-.95-3.81,0l-6.19,5.87v7.06c0,.95.79,1.59,1.43,1.59h38.23c.95,0,1.43-.79,1.43-1.43v-1.35l-9.2-16.18c-.79-2.06-3.17-1.9-4.28-.32h0Z"/></svg>