<?xml version="1.0" encoding="UTF-8"?><svg id="a" xmlns="http://www.w3.org/2000/svg" viewBox="0 0 75 75"><path d="M73.31,29.17l-19.27,10.32v10.18l19.26,10.46c.77.42,1.7-.14,1.7-1.01v-28.94c0-.87-.93-1.42-1.69-1.01Z"/><path d="M49.4,31.26l-47.76-.15C.6,31.11,0,31.85,0,32.9v23.8C0,57.6.75,58.2,1.65,58.2h15.29l1.22,8.13h2.46l.61,8.67h8.6l.5-8.67h2.46l1.22-8.13h15.24c1.05,0,1.65-.75,1.8-1.65v-23.8c0-1.05-.9-1.5-1.65-1.5Z"/><path d="M37.5.26c-8.17,0-14.8,6.63-14.8,14.8s6.63,14.8,14.8,14.8,14.8-6.63,14.8-14.8S45.67.26,37.5.26ZM37.5,22.14c-3.91,0-7.08-3.18-7.08-7.08s3.18-7.08,7.08-7.08,7.08,3.18,7.08,7.08-3.18,7.08-7.08,7.08Z"/><path d="M11.29,29.86c4.56,0,8.25-3.69,8.25-8.25s-3.69-8.25-8.25-8.25-8.25,3.69-8.25,8.25,3.69,8.25,8.25,8.25ZM11.29,18.35c1.79,0,3.25,1.46,3.25,3.25s-1.46,3.25-3.25,3.25-3.25-1.46-3.25-3.25,1.46-3.25,3.25-3.25Z"/><circle cx="37.5" cy="15.06" r="3.83"/></svg>