<?xml version="1.0" encoding="UTF-8"?><svg id="a" xmlns="http://www.w3.org/2000/svg" viewBox="0 0 75 75"><polygon points="48.57 62.17 48.57 62.17 48.57 62.17 48.57 62.17"/><path d="M27.07,60.97v-.02c.05-.59.07-.91.4-.91.21,0,.54.13,1.15.43,4.4,2.21,13.36,5,17.48,6.17.59.17,1.35.53,1.56,1.28.25.9-.32,2.12-1.7,3.63-1,1.11-2.23,2-3.6,2.61-1.25.55-2.61.83-3.98.83-1.07,0-2.14-.17-3.16-.49-1.03-.33-2.01-.8-2.9-1.42-1.88-1.29-3.32-3.11-4.14-5.23-.45-1.14-.56-1.81-.37-2.1.09-.12.24-.19.39-.17.38.04.75.15,1.08.34.17.08.34.17.53.26,1.21.58,2.87,1.38,4.54,2.03l.09.04c2.52.98,3.91,1.52,4.89,1.52.77,0,1.3-.32,1.93-1.2-.74-.3-1.49-.63-2.28-.98h-.01c-1.1-.49-2.23-.99-3.42-1.44-2.24-.86-4.7-1.85-4.8-1.89l-.38-.17c-1.59-.72-2.47-1.11-2.92-1.49-.44-.37-.48-.72-.42-1.42,0-.08.01-.15.02-.22Z"/><path d="M37.5,0c-1.27,0-2.18.92-2.18,2.19v2.8c0,1.27.92,2.19,2.18,2.19s2.18-.92,2.18-2.19v-2.8c0-1.27-.92-2.19-2.18-2.19Z"/><path d="M15.55,14.3c.35.35.89.58,1.5.58.45,0,.94-.13,1.4-.44l.05-.04c.44-.33.72-.86.76-1.45.05-.64-.19-1.29-.64-1.73l-2.11-2.12c-.42-.42-.96-.65-1.54-.65s-1.12.23-1.54.65c-.86.86-.86,2.21,0,3.08l2.11,2.12Z"/><path d="M56.43,14.35c.4.37.9.57,1.44.57.11,0,.22,0,.33-.02.48-.07.95-.29,1.26-.6l2.11-2.12c.86-.86.86-2.21,0-3.07-.42-.42-.96-.65-1.54-.65s-1.12.23-1.54.65l-2.11,2.12c-.45.45-.69,1.1-.64,1.73.04.56.29,1.06.69,1.39Z"/><path d="M13.75,30.61h-4.09c-1.25,0-2.15.9-2.15,2.15s.9,2.15,2.15,2.15h4.09c1.25,0,2.15-.9,2.15-2.15s-.9-2.15-2.15-2.15Z"/><path d="M65.34,30.61h-4.09c-1.25,0-2.15.9-2.15,2.15s.9,2.15,2.15,2.15h4.09c1.25,0,2.15-.9,2.15-2.15s-.9-2.15-2.15-2.15Z"/><path d="M56.01,44.95c-.6-.6-1.83-.86-2.9-.14l-.05.04c-.44.33-.72.86-.76,1.45-.05.64.19,1.29.64,1.73l2.11,2.12c.42.42.96.65,1.54.65s1.12-.23,1.54-.65c.86-.86.86-2.21,0-3.08l-2.11-2.11Z"/><path d="M22.01,44.9c-.39-.37-.9-.57-1.44-.57-.58,0-1.2.24-1.58.62l-2.11,2.12c-.86.86-.86,2.21,0,3.08h0c.42.42.96.65,1.54.65s1.12-.23,1.54-.65l2.11-2.12c.45-.45.69-1.1.64-1.73-.04-.56-.29-1.06-.7-1.39ZM17.67,49.34l.79-.8s0,0,0,0l-.8.8Z"/><path d="M55.19,20.74c-.93-2.33-2.33-4.44-4.11-6.21-3.52-3.49-8.34-5.41-13.57-5.41s-10.05,1.92-13.57,5.41c-1.78,1.77-3.18,3.88-4.11,6.21-1.02,2.56-1.53,5.3-1.51,8.06,0,1.39.16,2.77.51,4.11.31,1.18.76,2.32,1.33,3.39,1.1,2.07,2.55,3.81,3.95,5.49,2.5,3,4.87,5.83,4.87,10.09.01,1.23-.09,1.47-.13,1.52,0,0,0,0-.02,0-.26.17-.56.28-.86.35-.32.08-.63.19-.92.35-.14.1-.17,1.17-.1,2.1.04.67.12,1.09.2,1.14,2.11,1.14,3.95,2.09,6.08,2.99,1.89.8,4.05,1.6,7.46,2.75.38.13.78.27,1.16.4h.03c1.72.61,3.49,1.23,5.23,1.51.17.03.34.05.52.05.78,0,.84-.46.96-1.28v-.04c.02-.07.03-.15.04-.22.13-.85.17-1.24-.33-1.57-.5-.33-1.55-.58-3.62-1.08-.44-.11-.94-.22-1.49-.36-2.56-.62-4.8-1.36-6.13-1.8l-.05-.02c-.27-.09-.5-.17-.7-.23-.07-.28-.01-.58.16-.82.26-.3.86-.41,2.13-.41.95,0,8.16.35,8.44.35.65,0,1.52-.09,1.58-.84.05-.6.29-2.19.17-2.34-.11-.13-.34-.17-.75-.19-1.42-.09-2.01-.12-2-2.31,0-4.03,2.3-6.76,4.73-9.66,1.43-1.71,2.91-3.47,4.04-5.61.59-1.12,1.06-2.3,1.37-3.52.36-1.41.53-2.85.53-4.3.02-2.76-.49-5.5-1.51-8.06ZM30.95,18.03c-.04.49-.27.93-.64,1.24-.28.24-.55.49-.8.75-2.28,2.35-3.54,5.76-3.54,9.59,0,1.01-.82,1.83-1.83,1.83s-1.83-.82-1.83-1.83c0-4.78,1.62-9.09,4.57-12.13.34-.35.69-.68,1.06-.99.77-.65,1.92-.56,2.57.21.32.37.47.84.43,1.33ZM39.32,53.46h-3.79c-.95,0-1.9-.95-1.9-1.9s.95-1.9,1.9-1.9h3.79c.95,0,1.9.95,1.9,1.9s-.95,1.9-1.9,1.9ZM38.46,16.48c-1.28,0-2.51.15-3.65.46-.15.04-.31.06-.47.06-.82,0-1.55-.56-1.76-1.35-.26-.97.32-1.98,1.29-2.24h0c1.45-.39,2.99-.58,4.59-.58,1.01,0,1.83.82,1.83,1.83s-.82,1.83-1.83,1.83Z"/></svg>