<?xml version="1.0" encoding="UTF-8"?><svg id="a" xmlns="http://www.w3.org/2000/svg" viewBox="0 0 212.6 212.6"><path d="M134.74,59.13c.38,8.31-4.97,11.38-4.97,11.38-4.64-2.2-16.54-16-14.64-40.77C116.53,11.54,97.47,0,97.47,0c0,0,8.29,12.24-1.58,31.57-9.87,19.33-37.48,37.55-37.48,71.16,0,24.59,13.87,45.45,33.13,52.95.12-3.02-.04-5.93-.31-8.38-1.78-2.43-3.26-5.29-4.41-8.46-4.28-6.16-6.89-14.26-6.89-23.15.05-4.18,1.1-8.36,3.25-12.32,10.1-18.63,1.25-25.69,16.89-43.62,0,0,7.18,30.56,25.64,32.27,0,0,.87-.11,2.44-.38,0,0,5.72,7.87,6.45,24.06,0,8.89-2.61,16.99-6.89,23.15-1.15,3.17-2.63,6.03-4.41,8.46-.26,2.46-.43,5.36-.31,8.38,19.27-7.5,33.13-28.36,33.13-52.95.16-31.47-21.4-43.6-21.4-43.6Z" fill="#ca9e2c"/><path d="M112.74,142.62c3.96-3.78,6.67-11.52,6.67-20.46,0-12.66-5.44-22.91-12.14-22.91s-12.14,10.26-12.14,22.91c0,8.94,2.72,16.68,6.67,20.46,1.3,8.47,1.92,21.62-3.89,32.02v24.92l18.73,13.04v-37.96c-5.82-10.39-5.2-23.54-3.89-32.02Z" fill="#a9a8a9"/><path d="M86.83,178c-30.62-8.53-53.16-36.66-53.16-69.96,0-28.53,16.55-53.27,40.54-65.14,4.77-5.84,9.26-11.36,11.81-16.37,2.14-4.19,3.11-7.81,3.46-10.8C45.69,23.66,12.48,61.97,12.48,108.04s31.88,82.82,74.34,91.79v-21.83Z" fill="#151620"/><path d="M124.28,15.95c1.52,4.38,2.32,9.28,1.91,14.64-.21,2.72-.2,5.24-.06,7.59,30.44,8.65,52.8,36.69,52.8,69.86s-21.58,60.24-51.21,69.41v21.95c41.49-9.69,72.39-46.91,72.39-91.36S167.49,24.34,124.28,15.95Z" fill="#151620"/></svg>