<?xml version="1.0" encoding="UTF-8"?><svg id="a" xmlns="http://www.w3.org/2000/svg" viewBox="0 0 75 75"><path d="M37.5,6c8.41,0,16.32,3.28,22.27,9.23,5.95,5.95,9.23,13.86,9.23,22.27s-3.28,16.32-9.23,22.27-13.86,9.23-22.27,9.23-16.32-3.28-22.27-9.23c-5.95-5.95-9.23-13.86-9.23-22.27s3.28-16.32,9.23-22.27c5.95-5.95,13.86-9.23,22.27-9.23M37.5,0C16.79,0,0,16.79,0,37.5s16.79,37.5,37.5,37.5,37.5-16.79,37.5-37.5S58.21,0,37.5,0h0Z"/><path d="M62.25,27.99c-.09-.39-.33-.72-.67-.94l-22.56-14.15c-.92-.58-2.11-.58-3.03,0l-8.28,5.19v-3.57c0-.53-.43-.97-.97-.97h-5.12c-.53,0-.97.43-.97.97v7.99l-7.25,4.54c-.34.21-.58.55-.67.94-.09.39-.02.79.19,1.13l1.43,2.29c.21.34.54.58.94.67.11.03.23.04.34.04.28,0,.55-.08.79-.23l21.07-13.2,21.04,13.2c.7.44,1.63.23,2.07-.47l1.43-2.29c.21-.34.28-.74.19-1.13Z"/><path d="M57.92,35.71l-19.93-12.5c-.29-.18-.66-.18-.96,0l-19.96,12.5c-.26.16-.42.45-.42.76v21.01c0,.5.4.9.9.9h23.37v-12.93c0-.69.56-1.26,1.26-1.26h6.65c.69,0,1.26.56,1.26,1.26v12.93h7.35c.5,0,.9-.4.9-.9v-21.01c0-.31-.16-.6-.42-.76ZM33.24,47.89c0,.59-.48,1.08-1.08,1.08h-5.7c-.59,0-1.08-.48-1.08-1.08v-5.7c0-.59.48-1.08,1.08-1.08h5.7c.59,0,1.08.48,1.08,1.08v5.7Z"/></svg>