<?xml version="1.0" encoding="UTF-8"?><svg id="a" xmlns="http://www.w3.org/2000/svg" viewBox="0 0 75 75"><path d="M20.52,61.44l-3.55-3.49-3.55-3.49c-.17-.16-.41-.22-.62-.13l-6.86,2.81c-.13.05-.23.16-.28.29L.03,72.86c-.06.16-.01.31.08.42l6.74-6.78c-.62-1.46.08-3.07,1.56-3.52,1.31-.4,2.82.29,3.43,1.58.69,1.45.05,3.09-1.38,3.61-.63.23-1.33.21-1.98-.06l-6.74,6.78c.11.1.27.16.44.09l15.45-5.78c.13-.05.24-.15.29-.29l2.74-6.86c.08-.2.03-.45-.14-.61Z"/><path d="M14.97,53.2l6.69,6.65s20.04-17.66,30.53-28.1l-8.96-8.92c-10.5,10.29-28.25,30.36-28.25,30.36h0Z"/><path d="M72.95,2.03c-1.82-1.81-4.45-2.38-6.03-1.25-5.05,3.82-13.36,11.62-21.6,19.82l8.96,8.92c8.13-8.09,15.96-16.48,19.93-21.48,1.13-1.57.56-4.19-1.26-6h0Z"/><path d="M3.01,24.22l14.08,14c.44.44,1.46.08,2.38-.84s1.28-1.93.84-2.37l-13.2-13.13,3.22-3.2s-2.97-2.95-3.02-3.23l-2.07,2.06c-2.53,2.52-3.61,5.56-2.23,6.71Z"/><path d="M73.32,66.56l-6.14,6.1c2.45.75,5.05,1.36,7.81,1.67-.32-2.61-.93-5.2-1.68-7.77Z"/><path d="M49.42,38.21l-11.18,10.55,16.8,16.71c2.73,2.56,5.92,4.67,9.45,6.2l7.67-7.63c-1.4-3.52-3.51-6.7-6.23-9.4l-16.51-16.42Z"/><path d="M26.11,36.7l10.6-11.12L14.98,3.81c-.37-.37-.93-.31-1.39.15L4.23,13.26c-.46.46-.52,1.01-.15,1.38l22.03,22.06Z"/><path d="M3.82,10.1l6.44-6.41-2.69-2.68C6.17-.52,3.5-.29,1.66,1.54-.17,3.23-.41,5.9,1.13,7.43l2.69,2.68Z"/></svg>