<?xml version="1.0" encoding="UTF-8"?><svg id="b" xmlns="http://www.w3.org/2000/svg" viewBox="0 0 75 75"><path d="M43.46.84c-1.57-1.29-3.87-1.06-5.14.51s-1.05,3.86.48,5.16c1.54,1.32,3.86,1.14,5.16-.43,1.31-1.58,1.08-3.94-.5-5.24Z"/><path d="M6.35,45.26c1.17,1.18,1.33,3.03.36,4.12s-2.68,1.01-3.83-.17-1.29-2.99-.35-4.08,2.66-1.04,3.82.13Z"/><path d="M4.71,28.9c-.75-.73-1.86-.72-2.48,0-.62.72-.51,1.9.23,2.63.75.73,1.86.74,2.48.01.63-.73.52-1.91-.23-2.64Z"/><path d="M12.55,11.39c.85.69,2.11.58,2.81-.26s.58-2.08-.28-2.77-2.11-.56-2.8.28-.57,2.06.27,2.75Z"/><path d="M42.46,12.96c1.07.83,2.65.73,3.53-.25s.71-2.45-.38-3.27-2.65-.69-3.51.28-.7,2.41.36,3.24Z"/><path d="M54.01,36.47c3.83-5.15,8.39-12.84,12.75-22.53-.55-.71-1.11-1.38-1.68-2.02l-14.11,14.11c1.19,3.33,2.24,6.83,3.03,10.45Z"/><path d="M28.98,52.73c2.62,5.84,6.63,13.65,13.17,22.18,0,0,17.2-1.3,27.2-18.37.1-.36-21.33,2.07-40.37-3.81Z"/><path d="M46.07,51.79c6.45.69,15.02.81,25.92-.35,0,0,7.32-15.89-2.66-32.84,0,0-8.36,19.5-23.26,33.2Z"/><path d="M11.8,65.2c4.66,4.17,13.1,9.7,25.24,9.8,0,0-7.22-9.43-12.58-22.45l-12.65,12.65Z"/><path d="M30.39,47.13c.23.17.47.34.72.5,0,0,.01.02.02.02,0,0,.01,0,.02,0,1.08.69,2.24,1.19,3.46,1.5,3.12.79,6.35.27,9.1-1.44,0,0,0,0,0,0,2.59-1.62,4.43-4.14,5.17-7.09.21-.85.33-1.75.34-2.68.04-2.65-.81-5.21-2.37-7.28l-16.46,16.46Z"/><path d="M59.71,7.06c-3.56-2.09-6.8-1.76-10.07,3.64-3.98,6.57-8.46,9.78-11.06,8.99-3.06-.93-4.85-5.23-3.26-12.05C37.1.03,33.54-.86,27.87.57c-3.38.85-5.53,4.34-4.11,6.57,2.22,3.5,2.47,6.32,1.58,8.3-1.79,3.99-4.9,5.11-9.58.4-7.7-7.75-16.81,5.37-7.51,9.68,5.64,2.61,8.89,3.33,8.89,4.98,0,2.28-2.02,3.04-5.17,2.24-9.58-2.44-10.84,9.87-3.82,7.49,3.04-1.03,3.68-2.19,6.42-1.48,5.29,1.37,3.65,9.58-1.13,11.89-5.05,2.58-7.91,6.18-5.7,10.23.35.64.7,1.15,1.04,1.56L62.08,9.23c-.44-.75-1.2-1.48-2.38-2.17Z"/></svg>