<?xml version="1.0" encoding="UTF-8"?><svg id="a" xmlns="http://www.w3.org/2000/svg" viewBox="0 0 75 75"><path d="M75,43.61s0-.07,0-.1c0-.03,0-.05,0-.08,0-.04,0-.07-.02-.11,0-.02,0-.04-.01-.07,0-.04-.02-.07-.03-.11,0-.02-.01-.04-.02-.07,0-.03-.02-.06-.03-.1,0-.03-.02-.05-.03-.08-.01-.03-.02-.05-.03-.08-.01-.03-.03-.07-.05-.1-.01-.02-.02-.04-.03-.06-.02-.04-.04-.07-.07-.11,0,0,0-.01-.01-.02,0-.01-.02-.02-.02-.03-.02-.03-.05-.07-.08-.1-.02-.02-.03-.04-.05-.06-.02-.03-.05-.05-.07-.07-.02-.02-.05-.05-.07-.07-.02-.02-.04-.03-.06-.05-.03-.03-.07-.05-.1-.08-.01,0-.02-.02-.03-.02l-17-11.67V14.12s0,0,0,0h0s0-.01,0-.02c0-.03,0-.06,0-.09,0-.03,0-.05,0-.08,0-.04,0-.07-.01-.11,0-.02,0-.05-.01-.07,0-.04-.02-.07-.03-.11,0-.02-.01-.05-.02-.07,0,0,0-.02,0-.02,0-.03-.02-.05-.03-.08,0-.03-.02-.05-.03-.08-.01-.03-.03-.06-.04-.09-.01-.03-.03-.05-.04-.08-.01-.02-.03-.05-.04-.07-.02-.03-.03-.06-.05-.09,0,0-.01-.02-.02-.02,0,0,0,0,0,0,0,0-.01-.02-.02-.03,0,0,0,0,0,0-.02-.03-.04-.06-.07-.09,0,0-.01-.02-.02-.02-.01-.02-.03-.03-.04-.05-.02-.02-.04-.04-.06-.07,0,0-.01-.01-.02-.02-.02-.02-.04-.04-.06-.06-.02-.01-.03-.03-.05-.04,0,0-.01-.01-.02-.02-.03-.02-.06-.04-.09-.06-.01,0-.02-.02-.03-.03h0s0,0,0-.01L38.56.33s-.01,0-.02-.01c-.03-.02-.07-.04-.1-.06-.02-.01-.04-.02-.06-.04-.03-.02-.06-.03-.09-.04-.03-.01-.05-.02-.08-.04-.03-.01-.05-.02-.08-.03-.03-.01-.07-.02-.1-.03-.02,0-.04-.01-.07-.02-.04,0-.07-.02-.11-.03-.02,0-.05,0-.07-.01-.04,0-.07-.01-.11-.01-.03,0-.06,0-.09,0-.03,0-.06,0-.09,0-.04,0-.07,0-.11,0-.02,0-.04,0-.07,0-.04,0-.08.01-.13.02-.02,0-.03,0-.05,0-.04,0-.08.02-.13.03-.02,0-.03,0-.05.01-.04.01-.07.02-.11.04-.02,0-.04.02-.07.02-.03.01-.06.03-.09.04-.03.01-.06.03-.08.04-.02.01-.05.03-.07.04-.03.02-.06.04-.1.06,0,0-.01,0-.02.01l-17.81,12.22s0,0-.01,0c-.05.03-.09.07-.13.1,0,0-.02.02-.03.02-.03.03-.07.06-.1.09-.01.01-.02.02-.04.04-.03.04-.07.07-.1.11-.01.01-.02.03-.03.04-.02.03-.04.06-.06.09-.01.02-.02.03-.03.05-.03.04-.05.08-.07.12,0,.01-.01.02-.02.04-.02.04-.04.08-.05.12,0,.02-.01.03-.02.05-.02.04-.03.09-.04.13,0,0,0,.01,0,.02-.01.05-.03.1-.04.16,0,.01,0,.03,0,.04,0,.04-.01.08-.02.13,0,.01,0,.03,0,.04,0,.05,0,.1,0,.15h0s0,.02,0,.02v16.28L.81,42.07s0,0,0,0c-.05.03-.09.07-.14.1,0,0-.02.01-.02.02-.03.03-.07.06-.1.09-.01.01-.02.02-.03.03-.04.04-.07.08-.1.12,0,.01-.02.02-.03.04-.02.03-.05.06-.07.09-.01.02-.02.03-.03.05-.03.04-.05.09-.08.13,0,0,0,.02-.01.03-.02.04-.04.08-.06.12,0,.01-.01.03-.02.04-.02.04-.03.09-.05.14,0,0,0,.01,0,.02-.01.05-.03.1-.04.16,0,.01,0,.02,0,.04,0,.04-.01.09-.02.13,0,.01,0,.03,0,.04,0,.05,0,.1,0,.15H0s0,.02,0,.02v17.27c0,.13.02.26.04.38.02.2.09.41.21.59.04.05.08.1.12.15.12.16.27.31.44.43l17.81,12.22s.02.01.04.02c.05.03.09.06.14.08.02,0,.03.02.05.03.06.03.12.05.18.08.01,0,.02,0,.03.01.06.02.12.04.18.05,0,0,.02,0,.02,0,.06.02.13.03.2.04.01,0,.03,0,.04,0,.07,0,.13.01.2.01,0,0,0,0,0,0s0,0,0,0c.07,0,.14,0,.2-.01.01,0,.02,0,.03,0,.07,0,.13-.02.2-.04,0,0,.02,0,.02,0,.07-.02.13-.04.19-.06,0,0,0,0,.01,0,.06-.02.13-.05.19-.09,0,0,.01,0,.02,0,.01,0,.02-.01.03-.02.02,0,.04-.02.05-.03.03-.02.05-.03.07-.05,0,0,.02-.01.03-.02l16.75-11.5,16.75,11.5s.02.01.03.02c.05.03.09.06.14.08.02,0,.03.02.05.02.06.03.12.05.18.08.01,0,.02,0,.03.01.06.02.12.04.18.05,0,0,.02,0,.02,0,.06.02.13.03.2.04.01,0,.02,0,.04,0,.07,0,.13.01.2.01,0,0,0,0,0,0s0,0,0,0c.07,0,.14,0,.2-.01.01,0,.02,0,.03,0,.07,0,.13-.02.2-.04,0,0,.01,0,.02,0,.07-.02.13-.04.2-.06,0,0,0,0,0,0,.06-.02.13-.05.19-.09,0,0,.01,0,.02,0,.01,0,.02-.01.03-.02.02-.01.04-.02.06-.03.02-.01.05-.03.07-.04,0,0,.02-.01.03-.02l17.81-12.22c.53-.36.81-.95.81-1.55h0s0-.02,0-.02v-17.25s0,0,0,0h0s0-.01,0-.01ZM57.17,34.94l12.64,8.67-9.45,6.48-3.19-2.15v-13ZM39.35,5.42l12.65,8.68-9.45,6.48-3.21-2.16V5.42ZM53.44,17.66v10.27l-7.54-5.09,7.54-5.18ZM35.75,5.35v13.03l-3.43,2.12-9.32-6.4,12.75-8.75ZM21.48,34.89l12.7,8.72-9.33,6.4-3.38-2.28v-12.84ZM5.19,43.61l12.7-8.72v12.79l-3.56,2.2-9.15-6.28ZM19.69,53.56l-2.12-1.45,2.07-1.28,2.03,1.37-1.99,1.37ZM21.56,69.56v-12.74l3.46-2.37,9.36,6.32-12.82,8.8ZM35.63,57.28l-7.42-5.01,7.42-5.09v10.1ZM37.5,24.05l-1.94-1.33,1.95-1.21,1.86,1.26-1.87,1.28ZM39.38,27.31l3.34-2.29,9.36,6.32-12.7,8.71v-12.74ZM40.81,43.61l12.77-8.76v13.05l-3.43,2.12-9.34-6.41ZM55.31,53.56l-1.92-1.32,1.95-1.21,1.84,1.24-1.87,1.28ZM57.19,69.56v-12.74l3.33-2.29,9.36,6.32-12.69,8.71ZM71.25,57.44l-7.55-5.09,7.55-5.18v10.27Z"/></svg>