<?xml version="1.0" encoding="UTF-8"?><svg id="a" xmlns="http://www.w3.org/2000/svg" viewBox="0 0 75 75"><polygon points="20.41 25.45 27.5 26.95 22.02 32.43 17.73 28.13 20.41 25.45"/><polygon points="22.99 38.92 36.09 52.03 29 53.54 21.48 46.01 22.99 38.92"/><path d="M0,75h50.43c.81-2.12.62-5-.24-6.35-1.88-3.2-6.02-4.14-9.12-2.35-.56.38-1.41.09-1.79-.66-2.16-4.23-6.58-4.7-9.03-3.39-1.22.66-1.69-.38-1.69-.38-1.41-1.41-3.29-1.79-4.51-1.88-.56,0-1.97-.66-.94-2.26l2.63-2.63-5.64-5.64-2.54,2.54c-1.6,1.03-2.26-.38-2.26-.94,0-1.69-.66-3.29-1.88-4.52,0,0-.85-.47-.47-1.6,2.26-6.21-2.63-8.84-3.39-9.03-.38-.19-.98-.76-.66-1.98.4-1.51-.8-4.88-3.32-6.11-1.88-.91-3.96-.71-5.59.19v46.97Z"/><polygon points="42.58 53 48.06 47.52 49.56 54.61 46.88 57.3 42.58 53"/><path d="M60.85,8.96c-1.43,1.43-1.43,3.76,0,5.2,1.43,1.43,3.76,1.43,5.19,0,1.43-1.43,1.43-3.76,0-5.2-1.43-1.43-3.76-1.43-5.19,0Z"/><path d="M74.94.06c-3.65-.21-14.82-.21-21.16,6.12l-29,29.01,6.08,6.08,7.3-7.31c.8-.8,2.09-.8,2.88,0,.8.8.8,2.09,0,2.89l-7.3,7.31,6.08,6.08,29-29.01c6.34-6.34,6.34-17.51,6.12-21.17ZM68.82,16.93c-3.01,3.01-7.73,3.01-10.74,0-3.01-3.01-3.01-7.74,0-10.74,3.01-3.01,7.73-3.01,10.74,0,3.01,3.01,3.01,7.74,0,10.74Z"/></svg>