<?xml version="1.0" encoding="UTF-8"?><svg id="a" xmlns="http://www.w3.org/2000/svg" viewBox="0 0 75 75"><path d="M73.58,15.52h-18.49l-7.24-9.44c-.39-.65-1.03-.91-1.68-.91h-17.33c-.65,0-1.29.39-1.68.91l-7.24,9.44h-4.4v-3.75c0-.78-.65-1.42-1.42-1.42h-7.5c-.78,0-1.42.65-1.42,1.42v3.75H1.42c-.78,0-1.42.65-1.42,1.42v51.47c0,.78.65,1.42,1.42,1.42h72.16c.78,0,1.42-.65,1.42-1.42V16.94c0-.78-.65-1.42-1.42-1.42ZM37.5,64.66c-12.16,0-21.98-9.83-21.98-21.98s9.83-21.98,21.98-21.98,21.98,9.83,21.98,21.98-9.83,21.98-21.98,21.98Z"/><path d="M37.5,23.8c-10.44,0-18.87,8.43-18.87,18.87s8.43,18.87,18.87,18.87,18.87-8.43,18.87-18.87-8.43-18.87-18.87-18.87ZM37.5,52.35c-5.39,0-9.68-4.29-9.68-9.68s4.29-9.68,9.68-9.68,9.68,4.29,9.68,9.68-4.29,9.68-9.68,9.68Z"/><path d="M37.5,36.21c-3.62,0-6.47,2.84-6.47,6.47s2.84,6.47,6.47,6.47,6.47-2.84,6.47-6.47-2.84-6.47-6.47-6.47ZM39.62,43.88c-1.38,0-2.5-1.12-2.5-2.5s1.12-2.5,2.5-2.5,2.5,1.12,2.5,2.5-1.12,2.5-2.5,2.5Z"/></svg>