<?xml version="1.0" encoding="UTF-8"?><svg id="a" xmlns="http://www.w3.org/2000/svg" viewBox="0 0 75 75"><path d="M64.44,39.99c-13.63-5.05-24.38-15.8-29.43-29.43h0c-.71-1.92-3.43-1.92-4.14,0h0c-5.05,13.63-15.8,24.39-29.43,29.43h0c-1.92.71-1.92,3.43,0,4.14h0c13.63,5.05,24.39,15.8,29.43,29.43.71,1.92,3.43,1.92,4.14,0,5.05-13.63,15.8-24.39,29.43-29.43,1.92-.71,1.92-3.43,0-4.14ZM45.31,48.55c-4.15,3.57-7.74,7.73-10.68,12.35-.38.6-1.03.93-1.69.93-.37,0-.74-.1-1.07-.31-.93-.59-1.21-1.83-.62-2.76,3.15-4.95,7-9.4,11.44-13.23.84-.72,2.1-.63,2.82.21.72.84.63,2.1-.21,2.82ZM51.77,43.75c-.43.27-.85.55-1.27.83-.34.23-.73.34-1.12.34-.64,0-1.27-.31-1.66-.88-.62-.92-.38-2.16.54-2.78.45-.3.91-.6,1.37-.9.93-.59,2.17-.32,2.76.62.59.93.32,2.17-.62,2.76Z"/><path d="M74.32,14.53h0c.9.33.9,1.61,0,1.95h0c-6.42,2.37-11.47,7.43-13.85,13.85h0c-.33.9-1.61.9-1.95,0h0c-2.37-6.42-7.43-11.47-13.85-13.85h0c-.9-.33-.9-1.61,0-1.95h0c6.42-2.37,11.47-7.43,13.85-13.85h0c.33-.9,1.61-.9,1.95,0h0c2.37,6.42,7.43,11.47,13.85,13.85Z"/></svg>