<?xml version="1.0" encoding="UTF-8"?><svg id="a" xmlns="http://www.w3.org/2000/svg" viewBox="0 0 75 75"><path d="M38.3,20.31v-3.54h2.33c.72,0,1.53.48,1.85,1.13.64,1.29,1.85,2.09,3.3,2.09h5.47c.88,0,1.53-.72,1.53-1.53v-4.91c0-.88-.72-1.53-1.61-1.53h-3.86c-.72,0-1.53-.48-1.85-1.21-.64-1.21-1.93-2.01-3.3-2.01h-3.86v-.8c0-.4-.4-.8-.8-.8s-.8.4-.8.8v12.39c.24-.08,1.05-.24,1.61-.08Z"/><path d="M20.28,20.39h8.04c.4,0,.8-.4.8-.8s-.4-.8-.8-.8-.8-.4-.8-.8c0-1.37-1.05-2.41-2.41-2.41-.8,0-1.69.48-2.09,1.29-.24.4-.72.48-1.13.32,0,0-.8-.08-.8.8,0,.4-.4.8-.8.8s-.8.4-.8.8.4.8.8.8Z"/><path d="M61.63,28.59c.4,0,.8.4.8.8s-.4.8-.8.8h-8.04c-.4,0-.8-.4-.8-.8,0-.4.4-.8.8-.8s.8-.4.8-.8c0-1.37,1.05-2.41,2.41-2.41.8,0,1.69.48,2.09,1.29.24.4.64.48,1.05.32,0,0,.8-.08.8.8.08.4.48.8.88.8Z"/><path d="M21.96,30.84l-4.45,8.25s.18,1.42,1.55.11c0,0,2.65-4.38,5.78-1.43.57.75,3.38,1.32,4.71.1l-5.13-7.03c-.2-.45-.7-.64-1.23-.64s-.9.19-1.23.64Z"/><path d="M53.99,34.19c-.45,0-1.07.14-1.36.63l-5.15,6.47c.93.84,2.64.48,3.22-.4.64-.98,1.58-1.16,2.64-1.09,2.52.23,3.31,2.6,3.31,2.6.39.57,1.86,1.52,2.36-.43l-3.82-7.09c-.28-.56-1.02-.7-1.21-.7Z"/><path d="M35,28.39s1.59-3.62,5.14-1.17c1.23.99,1.42.17,1.42.17l-3.49-4.29c-.32-.39-.93-.37-1.22.04l-3.45,4.82s.25,1.9,1.59.44Z"/><path d="M37.5,6c8.41,0,16.32,3.28,22.27,9.23,5.95,5.95,9.23,13.86,9.23,22.27s-3.28,16.32-9.23,22.27-13.86,9.23-22.27,9.23-16.32-3.28-22.27-9.23c-5.95-5.95-9.23-13.86-9.23-22.27s3.28-16.32,9.23-22.27c5.95-5.95,13.86-9.23,22.27-9.23M37.5,0C16.79,0,0,16.79,0,37.5s16.79,37.5,37.5,37.5,37.5-16.79,37.5-37.5S58.21,0,37.5,0h0Z"/><path d="M35.1,41.77l4.29,6.07,9.29-11.68-5.56-6.85c-.49.51-2.64,1.6-4.41-.13-.17-.19-1.3-.56-1.64.13,0,0-1.73,3.99-5.43,1.08l-2.36,3.28,5.87,8.05-.05.04Z"/><path d="M11.18,50.28c1.41,2.89,3.3,5.56,5.64,7.9,5.52,5.52,12.87,8.57,20.68,8.57,3.83,0,7.55-.73,10.99-2.13l-17.57-24.86c-2.15,1.62-6.02,1.47-7.63-.32-.57-.68-1.59-.23-1.83.15,0,0-1.65,3.88-5.36,2.11l-4.92,8.58Z"/><path d="M60.21,44.39c-3.54,3.35-6.11-1.56-6.11-1.56-.27-.48-1.32-.83-1.89-.16-2.05,2.44-4.27,1.04-6.13.38l-5.34,6.71,9.84,13.92c2.78-1.39,5.34-3.24,7.6-5.5,2.32-2.32,4.19-4.95,5.6-7.81l-3.57-5.99Z"/></svg>