<?xml version="1.0" encoding="UTF-8"?><svg id="a" xmlns="http://www.w3.org/2000/svg" viewBox="0 0 75 75"><path d="M50.58,41.64l-12.07-12.01c-.58-.58-1.51-.58-2.09,0l-12.06,12.01c-.14.14-.33.22-.52.22h-15.01c-.64,0-.95-.8-.49-1.25l28.59-28.48c.28-.27.71-.27.99,0l28.69,28.48c.46.46.14,1.25-.49,1.25h-15.01c-.2,0-.38-.08-.52-.22Z"/><path d="M46.84,59.42c0,.53-.42.96-.93.96h-16.88c-.41,0-.93-.32-.93-.96v-14.89c0-.14.06-.27.15-.37l8.67-8.64c.29-.29.77-.29,1.06,0l8.7,8.64c.1.1.15.23.15.37v14.89Z"/><path d="M69,37.5c0,8.41-3.28,16.32-9.23,22.27-5.95,5.95-13.86,9.23-22.27,9.23s-16.32-3.28-22.27-9.23-9.23-13.86-9.23-22.27,3.28-16.32,9.23-22.27c5.95-5.95,13.86-9.23,22.27-9.23s16.32,3.28,22.27,9.23c5.95,5.95,9.23,13.86,9.23,22.27M75,37.5C75,16.79,58.21,0,37.5,0S0,16.79,0,37.5s16.79,37.5,37.5,37.5,37.5-16.79,37.5-37.5h0Z"/></svg>