<?xml version="1.0" encoding="UTF-8"?><svg id="a" xmlns="http://www.w3.org/2000/svg" viewBox="0 0 75 75"><path d="M67.27,38.71c-.01-.84-.61-2.06-2.21-2.06h-2.76c-1.28,0-2.21.88-2.21,2.09s.93,2.09,2.21,2.09h.62c.11,2.91-1.11,10.57-6.51,16.63-4.57,5.13-10.94,7.79-18.94,7.93-.15,0-.29,0-.44,0-6.58,0-13.1-2.74-17.88-7.53-4.66-4.67-7.21-10.84-7.07-17.03h.58c1.28,0,2.21-.88,2.21-2.09s-.93-2.09-2.21-2.09h-2.76c-1.6,0-2.19,1.22-2.21,2.06-.52,8.07,2.19,15.67,7.63,21.4,5.12,5.4,12.36,8.76,19.95,9.28v1.43h-14.31c-1.28,0-2.21.88-2.21,2.09s.93,2.09,2.21,2.09h33.04c1.28,0,2.21-.88,2.21-2.09s-.93-2.09-2.21-2.09h-14.31v-1.43c7.67-.53,14.96-3.92,20.11-9.39,5.39-5.73,8.04-13.29,7.46-21.29Z"/><path d="M54.42,32.75v-7.01h-4.62c-.77,0-1.54-.77-1.54-1.54s.77-1.54,1.54-1.54h4.62v-4.2h-4.62c-.77,0-1.54-.77-1.54-1.54s.77-1.54,1.54-1.54h4.62c-.92-8.62-8.16-15.39-16.93-15.39s-16,6.77-16.93,15.39h4.62c.77,0,1.54.77,1.54,1.54s-.77,1.54-1.54,1.54h-4.62v4.2h4.62c.77,0,1.54.77,1.54,1.54s-.77,1.54-1.54,1.54h-4.62v7.01h33.85Z"/><path d="M20.64,44.2c1.19,8.33,8.28,14.78,16.85,14.78s15.66-6.46,16.85-14.78H20.64Z"/><path d="M21.75,35.52h-2.22c-.75,0-1.5.8-1.5,1.61s.75,4.29,1.5,4.29h35.93c.75,0,1.5-3.49,1.5-4.29s-.75-1.61-1.5-1.61H21.75Z"/></svg>